<?xml version="1.0" encoding="utf-8"?>
<!-- Generator: Adobe Illustrator 28.0.0, SVG Export Plug-In . SVG Version: 6.00 Build 0)  -->
<svg version="1.1" id="Layer_1" xmlns="http://www.w3.org/2000/svg" xmlns:xlink="http://www.w3.org/1999/xlink" x="0px" y="0px"
	 viewBox="0 0 505.7 144.1" style="enable-background:new 0 0 505.7 144.1;" xml:space="preserve">
<style type="text/css">
	.st0{fill:#ED9147;stroke:#FFFFFF;stroke-width:1.5;stroke-miterlimit:10;}
	.st1{fill:#020202;stroke:#FFFFFF;stroke-width:1.5;stroke-miterlimit:10;}
</style>
<g>
	<path class="st0" d="M60.5,40.4c-4.5-3.8-10.3-6.2-16.3-6.2c-4.5,0-10.5,2.6-10.5,7.9c0,5.5,6.6,7.6,10.9,9l6.2,1.9
		C64,56.8,74.1,63.4,74.1,78.6c0,9.4-2.2,19-9.8,25.4c-7.4,6.2-17.3,8.9-26.8,8.9c-11.9,0-23.5-4-33.1-10.8L15,82.4
		c6.1,5.4,13.4,9.8,21.8,9.8c5.8,0,11.9-2.9,11.9-9.5c0-6.9-9.6-9.2-14.9-10.8C18.4,67.5,8.2,63.5,8.2,45.2
		c0-19.1,13.6-31.6,32.5-31.6c9.5,0,21.1,3,29.5,7.8L60.5,40.4z"/>
	<path class="st0" d="M108,69.4l23.6-23.1h31.1l-32.1,29.6l34.1,34.5h-31.9L108,84.3v26.1H85.2V6.6H108V69.4z"/>
	<path class="st0" d="M195.4,21.6c0,7-5.8,12.8-12.8,12.8s-12.8-5.8-12.8-12.8s5.8-12.8,12.8-12.8S195.4,14.6,195.4,21.6z
		 M194,110.4h-22.8V46.2H194V110.4z"/>
	<path class="st0" d="M231.7,110.4H209V6.6h22.8V110.4z"/>
	<path class="st0" d="M269.5,110.4h-22.7V6.6h22.7V110.4z"/>
	<path class="st1" d="M330.6,16.1v63.6c0,19.9-10.4,33.1-31.2,33.1c-10.5,0-18.6-5.2-24.2-13.9l14.1-14.9c2.8,3.8,6.6,8,9.9,8
		c7.2,0,7-8.6,7-13.9V16.1H330.6z"/>
	<path class="st1" d="M418.1,78.4c0,21.8-18,34.1-38.6,34.1c-20.5,0-38.6-12.2-38.6-34.1c0-21.9,18-34.3,38.6-34.3
		S418.1,56.5,418.1,78.4z M364.9,78.4c0,8.1,5.4,14.4,14.6,14.4s14.6-6.2,14.6-14.4c0-7.9-5.4-14.5-14.6-14.5S364.9,70.5,364.9,78.4
		z"/>
	<path class="st1" d="M419,46.2h26.2l17.1,32.9l16.8-32.9H505l-51.4,96.1h-25.5l21.9-40.8L419,46.2z"/>
</g>
<g>
</g>
<g>
</g>
<g>
</g>
<g>
</g>
<g>
</g>
<g>
</g>
</svg>
