<?xml version="1.0" encoding="utf-8"?>
<!-- Generator: Adobe Illustrator 28.0.0, SVG Export Plug-In . SVG Version: 6.00 Build 0)  -->
<svg version="1.1" id="Layer_1" xmlns="http://www.w3.org/2000/svg" xmlns:xlink="http://www.w3.org/1999/xlink" x="0px" y="0px"
	 viewBox="0 0 504.2 142.6" style="enable-background:new 0 0 504.2 142.6;" xml:space="preserve">
<style type="text/css">
	.st0{fill:#ED9147;}
	.st1{fill:#FFFFFF;}
</style>
<g>
	<path class="st0" d="M59.8,39.6c-4.5-3.8-10.3-6.2-16.3-6.2C39,33.4,33,36,33,41.2c0,5.5,6.6,7.6,10.9,9l6.2,1.9
		C63.3,56,73.4,62.6,73.4,77.9c0,9.4-2.2,19-9.8,25.4c-7.4,6.2-17.3,8.9-26.8,8.9c-11.9,0-23.5-4-33.1-10.8l10.5-19.7
		c6.1,5.4,13.4,9.7,21.8,9.7c5.8,0,11.9-2.9,11.9-9.5c0-6.9-9.6-9.2-14.9-10.8C17.6,66.8,7.5,62.8,7.5,44.5
		c0-19.1,13.6-31.6,32.5-31.6c9.5,0,21.1,3,29.5,7.8L59.8,39.6z"/>
	<path class="st0" d="M107.2,68.6l23.6-23.1H162l-32.1,29.6l34.1,34.5h-31.9l-24.9-26.1v26.1H84.5V5.9h22.8V68.6z"/>
	<path class="st0" d="M194.6,20.9c0,7-5.8,12.8-12.8,12.8s-12.8-5.8-12.8-12.8s5.8-12.8,12.8-12.8S194.6,13.9,194.6,20.9z
		 M193.2,109.6h-22.8V45.5h22.8V109.6z"/>
	<path class="st0" d="M231,109.6h-22.8V5.9H231V109.6z"/>
	<path class="st0" d="M268.7,109.6H246V5.9h22.7V109.6z"/>
	<path class="st1" d="M329.9,15.4V79c0,19.9-10.4,33.1-31.2,33.1c-10.5,0-18.6-5.2-24.2-13.9l14.1-14.9c2.8,3.8,6.6,8,9.9,8
		c7.2,0,7-8.6,7-13.9V15.4H329.9z"/>
	<path class="st1" d="M417.4,77.6c0,21.7-18,34.1-38.6,34.1c-20.5,0-38.6-12.2-38.6-34.1c0-21.9,18-34.2,38.6-34.2
		S417.4,55.8,417.4,77.6z M364.1,77.6c0,8.1,5.4,14.4,14.6,14.4s14.6-6.2,14.6-14.4c0-7.9-5.4-14.5-14.6-14.5S364.1,69.8,364.1,77.6
		z"/>
	<path class="st1" d="M418.2,45.5h26.2l17.1,32.9l16.8-32.9h25.9l-51.4,96.1h-25.5l21.9-40.8L418.2,45.5z"/>
</g>
<g>
</g>
<g>
</g>
<g>
</g>
<g>
</g>
<g>
</g>
<g>
</g>
</svg>
